<?xml version="1.0" encoding="UTF-8"?>
<!DOCTYPE svg PUBLIC "-//W3C//DTD SVG 1.1//EN" "http://www.w3.org/Graphics/SVG/1.1/DTD/svg11.dtd">
<svg version="1.1" xmlns="http://www.w3.org/2000/svg" xmlns:xlink="http://www.w3.org/1999/xlink" x="0" y="0" width="782" height="450" viewBox="0, 0, 782, 450">
  <g id="Layer_1">
    <g>
      <g id="Logo">
        <path d="M185.562,206.783 C192.831,211.2 197.63,217.602 198.242,226.189 C197.816,235.737 192.88,240.408 185.562,245.596 L185.562,206.783 z" fill="#D9EF8B"/>
        <path d="M274.197,108 L274.239,108.735 C249.299,112.153 226.506,115.966 203.927,120.952 C189.603,124.516 195.702,122.823 185.562,125.785 L185.562,108 L274.197,108 z" fill="#A6D96A"/>
        <path d="M274.239,123.623 L274.239,214.624 C249.136,191.859 218.923,182.325 185.562,181.061 L185.562,137.627 C214.587,130.142 244.405,126.13 274.239,123.623 z" fill="#D9EF8B"/>
        <path d="M190.159,188.642 C222.44,190.13 251.158,205.607 274.239,227.535 L274.239,282.327 C253.146,275.512 225.562,265.47 204.468,258.656 C211.067,236.392 211.451,209.164 185.562,200.111 L185.562,188.645 L190.159,188.642 z" fill="#A6D96A"/>
        <path d="M185.562,222.621 L206.852,232.903 L217.611,244.348 L274.058,262.978 L274.264,341.927 L185.562,341.927 L185.562,222.621 z" fill="#D9EF8B"/>
        <path d="M185.562,213.303 L206.187,223.505 L273.871,253.218 L273.9,264.809 L250.108,255.699 L185.562,285.973 L185.562,285.17 L227.078,247.385 L185.562,230.198 L185.562,213.303 z" fill="#66BD63"/>
        <path d="M274.263,286.066 L274.264,336.321 L274.264,341.905 L185.562,341.913 L185.562,290.533 C215.006,287.163 244.66,286.542 274.263,286.066 z" fill="#66BD63"/>
        <path d="M99.156,242.726 C108.099,249.388 118.378,253.951 128.673,258.073 C119.995,271.523 112.101,284.583 103.421,298.033 L99.156,297.059 L99.156,242.726 z" fill="#58AFD6"/>
        <path d="M185.562,108 L185.562,125.785 C158.882,132.825 133.521,144.006 110.881,159.803 C102.436,165.931 102.768,165.613 99.156,169.384 L99.156,108 L185.562,108 z" fill="#58AFD6"/>
        <path d="M185.562,137.627 L185.562,181.061 C164.159,181.255 144.864,186.9 128.678,201.237 C122.036,207.572 118.937,212.924 118.415,222.346 C117.358,241.397 137.921,252.158 167.015,258.737 C142.734,255.695 117.217,251.62 99.156,233.819 L99.156,183.298 C119.893,156.37 153.987,146.003 185.562,137.627 z" fill="#8FD1E9"/>
        <path d="M185.562,188.645 L185.562,200.111 C173.148,195.331 159.624,195.813 146.596,196.871 C158.846,191.367 172.155,188.655 185.562,188.645 z" fill="#58AFD6"/>
        <path d="M162.197,200.636 C169.858,200.874 179.143,202.232 185.562,206.783 L185.562,245.596 C178.695,250.145 170.242,251.455 162.197,251.743 C142.294,251.743 126.153,240.3 126.153,226.189 C126.153,212.078 142.294,200.636 162.197,200.636 z" fill="#C7E7F1"/>
        <path d="M179.415,219.652 L185.562,222.621 L185.562,341.927 L99.156,341.927 L99.156,252.14 L100.871,252.781 L122.39,267.236 L135.839,246.756 L149.651,245.318 L179.415,219.652 z" fill="#8FD1E9"/>
        <path d="M176.042,208.594 L185.562,213.303 L185.562,230.198 L185.135,230.021 L99.372,298.02 L99.372,277.731 L135.14,239.818 L147.178,237.153 L176.042,208.594 z" fill="#0073A2"/>
        <path d="M185.562,285.17 L185.562,285.973 L183.741,286.827 L185.562,285.17 z" fill="#0073A2"/>
        <path d="M99.156,242.932 L121.95,254.607 L113.779,266.005 L99.156,258.456 L99.156,242.932 z" fill="#0073A2"/>
        <path d="M185.562,290.533 L185.562,341.913 L99.372,341.92 L99.372,302.65 C127.821,296.743 156.651,293.173 185.562,290.533 z" fill="#0073A2"/>
        <path d="M10.67,270.11 C23.93,281.946 37.739,284.023 52.45,291.554 L10.934,342 L10.67,270.11" fill="#F6E8C3"/>
        <path d="M99.156,183.298 L99.156,233.819 C92.524,227.158 89.697,217.925 88.749,208.832 C90.158,198.645 93.834,191.821 99.156,183.298 z" fill="#F6E8C3"/>
        <path d="M99.156,108 L99.156,169.384 C87.958,180.368 76.591,194.165 77.933,210.936 C79.037,224.734 88.648,234.819 99.156,242.726 L99.156,297.058 C72.516,289.956 39.049,284.952 19.004,264.318 C14.596,259.781 13.601,257.875 10.67,253.276 L10.67,108 L99.156,108 z" fill="#DFC27D"/>
        <path d="M91.188,249.166 L99.156,252.141 L99.156,341.928 L10.848,341.928 L10.604,316.872 L65.902,267.236 L73.972,267.236 L91.188,249.166 z" fill="#F6E8C3"/>
        <path d="M99.372,277.731 L99.372,298.02 L90.444,305.099 L69.929,308.939 L99.372,277.731 z" fill="#BF812D"/>
        <path d="M91.433,238.976 L99.156,242.932 L99.156,258.456 L97.103,257.396 L50.635,314.981 L10.725,323.877 L10.719,310.137 L64.824,255.245 L73.941,255.723 L91.433,238.976 z" fill="#BF812D"/>
        <path d="M99.372,302.65 L99.372,341.92 L10.67,341.928 L10.67,341.743 L10.685,323.433 C39.953,315.354 69.476,308.019 99.372,302.65 z" fill="#BF812D"/>
        <path d="M91.059,307.584 C85.689,308.799 79.169,309.478 74.555,312.727 C90.962,313.077 82.762,312.793 99.156,313.581 L99.156,313.581 C108.265,314.053 117.375,314.557 126.477,315.153 C160.048,317.382 140.345,315.955 185.562,319.736 L185.562,319.736 C195.755,320.588 187.746,319.878 209.521,322.506 C214.819,323.237 219.203,323.907 224.271,325.075 C226.127,325.503 232.752,327.151 228.207,329.14 C214.77,334.896 199.925,336.409 185.562,338.279 L185.562,338.279 C172.717,339.846 159.817,340.897 146.919,341.911 L99.156,341.917 L99.156,341.917 L10.67,341.928 C40.108,338.941 69.639,337.019 99.156,335.006 L99.156,335.005 C122.2,333.327 145.283,332.142 168.306,330.176 C170.167,330.017 180.379,329.522 182.257,328.27 C181.436,326.406 169.075,325.321 168.001,325.186 C162.668,324.515 155.262,323.744 150.011,323.241 C133.072,321.617 116.112,320.223 99.156,318.788 L99.156,318.788 C88.895,317.885 78.621,317.093 68.382,315.956 C65.314,315.616 61.53,315.401 58.512,314.396 C68.645,309.412 79.951,308.265 91.059,307.584 L91.059,307.584 L91.061,307.584 L91.061,307.584 L91.059,307.584 z" fill="#92C5F2"/>
      </g>
      <path d="M327.82,316.816 C327.469,323.485 325.275,325.415 322.029,325.415 C315.71,325.415 315.184,318.22 315.184,308.567 C315.184,298.388 315.798,291.719 322.292,291.719 C325.363,291.719 327.995,293.123 328.346,300.319 L351.337,300.319 C351.249,281.716 337.736,275.222 321.765,275.222 C300.354,275.222 288.596,288.56 289.21,308.304 C289.21,328.399 299.477,341.912 321.677,341.912 C337.385,341.912 351.337,334.278 351.337,316.816 z" fill="#000000"/>
      <path d="M356.69,340.245 L377.925,340.245 L377.925,276.889 L356.69,276.889 z" fill="#000000"/>
      <path d="M384.243,340.245 L405.479,340.245 L405.479,296.194 L384.243,296.194 z M384.243,290.403 L405.479,290.403 L405.479,276.889 L384.243,276.889 z" fill="#000000"/>
      <path d="M412.236,340.245 L433.471,340.245 L433.471,312.779 C433.471,309.269 435.314,307.865 437.332,307.865 C439.35,307.865 441.018,309.533 441.018,312.604 L441.018,340.245 L462.253,340.245 L462.253,312.779 C462.253,309.269 464.096,307.865 466.114,307.865 C468.132,307.865 469.8,309.533 469.8,312.604 L469.8,340.245 L491.035,340.245 L491.035,310.936 C491.035,299.266 484.629,294.878 475.767,294.878 C470.765,294.878 465.5,296.546 461.902,302.863 C459.182,297.423 454.268,294.878 447.511,294.878 C442.509,294.878 437.244,296.546 433.647,302.863 L433.471,302.863 L432.945,296.195 L412.236,296.195 z" fill="#000000"/>
      <path d="M523.854,312.779 L521.309,312.779 C504.812,312.779 496.037,317.255 496.037,328.135 C496.037,336.823 502.355,341.561 511.305,341.561 C516.132,341.561 520.782,340.07 523.854,336.033 L524.38,340.245 L542.983,340.245 L542.983,310.498 C542.983,300.231 537.542,294.878 520.607,294.878 C509.462,294.878 498.582,297.423 497.88,309.269 L515.43,309.269 C515.693,305.584 517.097,304.706 519.729,304.706 C522.713,304.706 523.854,306.023 523.854,308.216 z M523.854,324.713 C523.854,328.311 522.713,330.68 519.027,330.68 C515.781,330.68 514.113,328.925 514.113,326.117 C514.113,323.66 515.342,321.028 520.958,321.028 L523.854,321.028 z" fill="#000000"/>
      <path d="M552.723,329.189 C552.723,339.017 560.357,341.561 568.606,341.561 C572.818,341.561 577.907,340.684 582.734,339.631 L582.734,326.644 C580.803,327.17 579.048,327.17 577.556,327.17 C575.012,327.17 573.959,326.03 573.959,322.695 L573.959,309.182 L583.523,309.182 L583.523,296.195 L573.959,296.195 L573.959,281.716 L552.723,289.087 L552.723,296.195 L547.019,296.195 L547.019,309.182 L552.723,309.182 z" fill="#000000"/>
      <path d="M617.834,326.117 C617.22,329.276 614.938,330.68 612.569,330.68 C608.357,330.68 606.602,328.487 606.602,323.397 L606.602,322.081 L636.963,322.081 L636.963,319.097 C636.963,303.39 628.978,294.878 612.306,294.878 C596.51,294.878 586.244,302.776 586.244,317.957 C586.244,335.77 597.827,341.561 610.726,341.561 C627.223,341.561 634.857,336.121 636.437,326.117 z M606.602,312.779 L606.602,312.165 C606.602,307.953 608.883,305.759 612.306,305.759 C615.64,305.759 617.834,307.953 617.834,312.165 L617.834,312.779 z" fill="#000000"/>
      <path d="M291.492,254.981 L322.73,254.981 C342.211,254.981 354.672,243.135 354.672,224.006 C354.672,205.227 346.599,191.626 321.239,191.626 L291.492,191.626 z M316.061,206.017 L318.518,206.017 C322.555,206.017 324.924,207.508 326.504,210.053 C328.171,212.686 328.698,217.161 328.698,223.303 C328.698,229.446 328.171,233.921 326.504,236.554 C324.924,239.098 322.555,240.59 318.518,240.59 L316.061,240.59 z" fill="#000000"/>
      <path d="M360.024,254.981 L381.26,254.981 L381.26,231.903 C381.26,229.095 382.664,226.375 386.7,226.375 C390.474,226.375 393.106,226.989 395.563,227.603 L395.563,211.633 C393.545,210.58 391.702,210.404 389.947,210.404 C387.227,210.404 384.331,211.808 381.26,215.757 L380.733,210.931 L360.024,210.931 z" fill="#000000"/>
      <path d="M396.528,232.956 C396.528,246.908 405.566,256.298 423.467,256.298 C441.368,256.298 450.407,246.908 450.407,232.956 C450.407,219.004 441.368,209.615 423.467,209.615 C405.566,209.615 396.528,219.004 396.528,232.956 z M418.466,232.956 C418.466,224.181 420.045,221.549 423.467,221.549 C426.89,221.549 428.469,224.181 428.469,232.956 C428.469,241.731 426.89,244.364 423.467,244.364 C420.045,244.364 418.466,241.731 418.466,232.956 z" fill="#000000"/>
      <path d="M506.391,210.931 L485.156,210.931 L485.156,238.396 C485.156,241.906 483.313,243.31 480.944,243.31 C478.399,243.31 477.083,241.468 477.083,238.221 L477.083,210.931 L455.847,210.931 L455.847,240.239 C455.847,251.91 462.253,256.297 471.116,256.297 C476.117,256.297 481.383,254.63 484.98,248.312 L485.156,248.312 L485.682,254.981 L506.391,254.981 z" fill="#000000"/>
      <path d="M538.596,242.258 C533.945,242.258 533.769,238.748 533.769,233.395 C533.769,228.481 533.769,222.075 538.947,222.075 C543.948,222.075 543.948,227.165 543.948,232.342 C543.948,237.695 543.861,242.258 538.596,242.258 z M544.65,254.016 C544.65,259.544 542.807,261.475 539.122,261.475 C537.63,261.475 536.49,261.124 535.7,260.51 C534.91,259.895 534.559,258.93 534.559,257.965 L513.674,257.965 C514.64,266.915 520.519,272.882 537.718,272.882 C553.425,272.882 564.306,268.934 564.306,251.033 L564.306,210.931 L544.299,210.931 L543.948,215.757 L543.773,215.757 C540.965,211.194 536.402,209.615 531.224,209.615 C520.256,209.615 511.832,216.635 511.832,233.132 C511.832,249.102 522.099,254.192 530.786,254.192 C535.7,254.192 541.14,253.139 544.475,248.488 L544.65,248.488 z" fill="#000000"/>
      <path d="M571.151,254.981 L592.386,254.981 L592.386,227.516 C592.386,224.006 594.229,222.602 596.598,222.602 C599.143,222.602 600.459,224.444 600.459,227.691 L600.459,254.981 L621.695,254.981 L621.695,225.673 C621.695,214.002 615.289,209.615 606.426,209.615 C599.231,209.615 595.633,212.159 592.562,216.898 L592.386,216.898 L592.386,191.626 L571.151,191.626 z" fill="#000000"/>
      <path d="M630.996,243.925 C630.996,253.753 638.63,256.298 646.879,256.298 C651.091,256.298 656.18,255.42 661.007,254.367 L661.007,241.38 C659.076,241.907 657.321,241.907 655.829,241.907 C653.285,241.907 652.232,240.766 652.232,237.431 L652.232,223.918 L661.797,223.918 L661.797,210.931 L652.232,210.931 L652.232,196.452 L630.996,203.823 L630.996,210.931 L625.292,210.931 L625.292,223.918 L630.996,223.918 z" fill="#000000"/>
      <path d="M747.353,254.981 L771.396,254.981 L758.497,241.468 C764.025,236.905 768.062,227.165 768.062,220.057 L749.985,220.057 C749.81,223.742 748.494,227.077 746.3,229.885 L738.49,222.251 C747.177,216.81 751.038,210.492 751.038,204.876 C751.038,196.452 742.878,189.959 726.293,189.959 C710.147,189.959 700.67,195.487 700.67,205.754 C700.67,211.194 704.706,216.547 710.937,220.759 C699.003,224.181 694.703,230.938 694.703,237.431 C694.703,249.277 704.882,256.648 722.344,256.648 C729.803,256.648 737.174,255.069 743.492,251.208 z M733.137,241.468 C729.803,243.486 726.556,244.715 723.748,244.715 C719.711,244.715 715.938,241.907 715.938,237.87 C715.938,235.413 718.132,232.254 722.607,231.025 z M720.326,205.578 C720.326,203.56 721.554,201.366 726.117,201.366 C730.68,201.366 731.909,203.56 731.909,205.578 C731.909,207.158 729.978,209.965 726.117,212.423 C722.256,209.965 720.326,207.158 720.326,205.578 z" fill="#000000"/>
      <path d="M353.97,171.619 L375.205,171.619 L375.205,108.263 L340.368,108.263 L333.436,145.996 L333.261,145.996 L326.328,108.263 L291.492,108.263 L291.492,171.619 L312.727,171.619 L312.727,126.34 L312.903,126.34 L321.853,171.619 L344.844,171.619 L353.794,126.34 L353.97,126.34 z" fill="#000000"/>
      <path d="M381.962,149.593 C381.962,163.546 391,172.935 408.901,172.935 C426.802,172.935 435.84,163.546 435.84,149.593 C435.84,135.641 426.802,126.252 408.901,126.252 C391,126.252 381.962,135.641 381.962,149.593 z M403.899,149.593 C403.899,140.818 405.479,138.186 408.901,138.186 C412.323,138.186 413.903,140.818 413.903,149.593 C413.903,158.368 412.323,161.001 408.901,161.001 C405.479,161.001 403.899,158.368 403.899,149.593 z" fill="#000000"/>
      <path d="M441.281,171.619 L462.516,171.619 L462.516,144.153 C462.516,140.643 464.359,139.239 466.728,139.239 C469.273,139.239 470.589,141.082 470.589,144.329 L470.589,171.619 L491.825,171.619 L491.825,142.31 C491.825,130.639 485.419,126.252 476.556,126.252 C471.555,126.252 466.29,127.919 462.692,134.237 L462.516,134.237 L461.99,127.568 L441.281,127.568 z" fill="#000000"/>
      <path d="M501.126,160.562 C501.126,170.39 508.76,172.935 517.009,172.935 C521.221,172.935 526.31,172.057 531.137,171.004 L531.137,158.017 C529.206,158.544 527.451,158.544 525.959,158.544 C523.415,158.544 522.362,157.403 522.362,154.069 L522.362,140.555 L531.927,140.555 L531.927,127.568 L522.362,127.568 L522.362,113.089 L501.126,120.46 L501.126,127.568 L495.422,127.568 L495.422,140.555 L501.126,140.555 z" fill="#000000"/>
      <path d="M561.586,144.153 L559.041,144.153 C542.544,144.153 533.769,148.628 533.769,159.509 C533.769,168.196 540.087,172.935 549.038,172.935 C553.864,172.935 558.515,171.443 561.586,167.407 L562.112,171.619 L580.716,171.619 L580.716,141.871 C580.716,131.605 575.275,126.252 558.339,126.252 C547.195,126.252 536.314,128.797 535.612,140.643 L553.162,140.643 C553.425,136.957 554.829,136.08 557.462,136.08 C560.445,136.08 561.586,137.396 561.586,139.59 z M561.586,156.087 C561.586,159.685 560.445,162.054 556.76,162.054 C553.513,162.054 551.846,160.299 551.846,157.491 C551.846,155.034 553.074,152.401 558.69,152.401 L561.586,152.401 z" fill="#000000"/>
      <path d="M587.472,171.619 L608.708,171.619 L608.708,144.153 C608.708,140.643 610.551,139.239 612.92,139.239 C615.465,139.239 616.781,141.082 616.781,144.329 L616.781,171.619 L638.016,171.619 L638.016,142.31 C638.016,130.639 631.611,126.252 622.748,126.252 C617.746,126.252 612.481,127.919 608.883,134.237 L608.708,134.237 L608.181,127.568 L587.472,127.568 z" fill="#000000"/>
      <path d="M670.396,144.153 L667.851,144.153 C651.354,144.153 642.579,148.628 642.579,159.509 C642.579,168.196 648.897,172.935 657.848,172.935 C662.674,172.935 667.325,171.443 670.396,167.407 L670.923,171.619 L689.526,171.619 L689.526,141.871 C689.526,131.605 684.085,126.252 667.149,126.252 C656.005,126.252 645.124,128.797 644.422,140.643 L661.972,140.643 C662.235,136.957 663.639,136.08 666.272,136.08 C669.255,136.08 670.396,137.396 670.396,139.59 z M670.396,156.087 C670.396,159.685 669.255,162.054 665.57,162.054 C662.323,162.054 660.656,160.299 660.656,157.491 C660.656,155.034 661.884,152.401 667.5,152.401 L670.396,152.401 z" fill="#000000"/>
    </g>
  </g>
</svg>
